<svg xmlns="http://www.w3.org/2000/svg" viewBox="0 0 127.72 78.92"><defs><style>.cls-1{fill:#f6f6f6;}</style></defs><g id="Capa_2" data-name="Capa 2"><g id="Capa_1-2" data-name="Capa 1"><path class="cls-1" d="M124.77,15.9H3C1.32,15.9,0,13.73,0,11.05V4.85H0C0,2.17,1.32,0,3,0H124.77c1.63,0,3,2.17,3,4.85v6.2C127.72,13.73,126.4,15.9,124.77,15.9Z"/><path class="cls-1" d="M124.77,47.41H3C1.32,47.41,0,45.24,0,42.56v-6.2H0c0-2.68,1.32-4.85,3-4.85H124.77c1.63,0,3,2.17,3,4.85v6.2C127.72,45.24,126.4,47.41,124.77,47.41Z"/><path class="cls-1" d="M124.77,78.92H3C1.32,78.92,0,76.75,0,74.07v-6.2H0C0,65.19,1.32,63,3,63H124.77c1.63,0,3,2.17,3,4.85v6.2C127.72,76.75,126.4,78.92,124.77,78.92Z"/></g></g></svg>