<svg xmlns="http://www.w3.org/2000/svg" viewBox="0 0 179.17 179.18"><defs><style>.cls-1{fill:#b2b2b2;}</style></defs><g id="Capa_2" data-name="Capa 2"><g id="Capa_1-2" data-name="Capa 1"><path class="cls-1" d="M175.78,156a11.62,11.62,0,0,1,0,16.42l-3.38,3.38a11.62,11.62,0,0,1-16.42,0L89.59,109.39,23.2,175.78a11.62,11.62,0,0,1-16.42,0L3.4,172.4A11.62,11.62,0,0,1,3.4,156L69.79,89.59,3.4,23.2a11.62,11.62,0,0,1,0-16.42L6.78,3.4a11.62,11.62,0,0,1,16.42,0L89.59,69.79,156,3.4a11.62,11.62,0,0,1,16.42,0l3.38,3.38a11.62,11.62,0,0,1,0,16.42L109.39,89.59Z"/></g></g></svg>